<svg width="192" height="192" viewBox="0 0 192 192" xmlns="http://www.w3.org/2000/svg">
  <defs>
    <linearGradient id="grad1" x1="0%" y1="0%" x2="100%" y2="100%">
      <stop offset="0%" style="stop-color:#4CAF50;stop-opacity:1" />
      <stop offset="100%" style="stop-color:#2196F3;stop-opacity:1" />
    </linearGradient>
  </defs>
  
  <!-- 背景圆形 -->
  <circle cx="96" cy="96" r="88" fill="url(#grad1)" stroke="#fff" stroke-width="6"/>
  
  <!-- 数学符号 -->
  <g fill="white" font-family="Arial, sans-serif" font-weight="bold">
    <!-- 加号 -->
    <text x="48" y="65" font-size="32" text-anchor="middle">+</text>
    <!-- 减号 -->
    <text x="144" y="65" font-size="32" text-anchor="middle">-</text>
    <!-- 乘号 -->
    <text x="48" y="135" font-size="32" text-anchor="middle">×</text>
    <!-- 除号 -->
    <text x="144" y="135" font-size="32" text-anchor="middle">÷</text>
    
    <!-- 中心数字 -->
    <text x="96" y="110" font-size="42" text-anchor="middle" fill="#FFD700">123</text>
  </g>
  
  <!-- 装饰性星星 -->
  <g fill="#FFD700">
    <polygon points="25,25 28,34 37,34 30,40 33,49 25,43 17,49 20,40 13,34 22,34" />
    <polygon points="167,25 170,34 179,34 172,40 175,49 167,43 159,49 162,40 155,34 164,34" />
    <polygon points="25,167 28,176 37,176 30,182 33,191 25,185 17,191 20,182 13,176 22,176" />
    <polygon points="167,167 170,176 179,176 172,182 175,191 167,185 159,191 162,182 155,176 164,176" />
  </g>
</svg>